<svg id="Capa_1" data-name="Capa 1" xmlns="http://www.w3.org/2000/svg" viewBox="0 0 120.87 120.87"><defs><style>.cls-1{fill:#fff;}</style></defs><path class="cls-1" d="M60.43,0h0A60.44,60.44,0,0,0,0,60.43H0a60.44,60.44,0,0,0,60.43,60.44h0a60.44,60.44,0,0,0,60.44-60.44h0A60.44,60.44,0,0,0,60.43,0ZM78.34,55.75l-1,8.08a2.7,2.7,0,0,1-2.67,2.37H61.57V100c-1.38.12-2.78.19-4.2.19a46.75,46.75,0,0,1-9.23-.92V66.2H38.06a1.68,1.68,0,0,1-1.67-1.69V54.4a1.68,1.68,0,0,1,1.67-1.69H48.14V37.54A16.82,16.82,0,0,1,64.93,20.68H76.68a1.68,1.68,0,0,1,1.67,1.68V32.48a1.68,1.68,0,0,1-1.67,1.69h-8.4a6.72,6.72,0,0,0-6.71,6.74v11.8h14.1A2.7,2.7,0,0,1,78.34,55.75Z"/></svg>