<svg id="Capa_1" data-name="Capa 1" xmlns="http://www.w3.org/2000/svg" viewBox="0 0 120.87 120.87"><defs><style>.cls-1{fill:#fff;}</style></defs><path class="cls-1" d="M75.83,34.2H45.22A10.94,10.94,0,0,0,34.29,45.13V75.74A10.94,10.94,0,0,0,45.22,86.67H75.83A10.93,10.93,0,0,0,86.76,75.74V45.13A10.93,10.93,0,0,0,75.83,34.2ZM60.56,76.83A16.4,16.4,0,1,1,77,60.43,16.41,16.41,0,0,1,60.56,76.83ZM78.05,46.22a3.28,3.28,0,1,1,3.28-3.28A3.28,3.28,0,0,1,78.05,46.22Z"/><path class="cls-1" d="M60.53,0h0A60.44,60.44,0,0,0,.09,60.43h0a60.44,60.44,0,0,0,60.44,60.44h0A60.44,60.44,0,0,0,121,60.43h0A60.44,60.44,0,0,0,60.53,0Zm31.7,76.83a15.31,15.31,0,0,1-15.31,15.3H44.13a15.3,15.3,0,0,1-15.3-15.3V44a15.31,15.31,0,0,1,15.3-15.31H76.92A15.32,15.32,0,0,1,92.23,44Z"/><circle class="cls-1" cx="60.56" cy="60.43" r="10.93" transform="matrix(0.99, -0.16, 0.16, 0.99, -8.9, 10.48)"/></svg>