<svg id="Capa_1" data-name="Capa 1" xmlns="http://www.w3.org/2000/svg" viewBox="0 0 120.87 120.87"><defs><style>.cls-1{fill:#fff;}</style></defs><path class="cls-1" d="M60.72,0h0A60.43,60.43,0,0,0,.28,60.43h0a60.43,60.43,0,0,0,60.44,60.43h0a60.43,60.43,0,0,0,60.43-60.43h0A60.43,60.43,0,0,0,60.72,0ZM45.8,87.8a.58.58,0,0,1-.58.58H33.41a.58.58,0,0,1-.58-.58V50a.58.58,0,0,1,.58-.58H45.22a.58.58,0,0,1,.58.58ZM39.31,44.27a7.78,7.78,0,1,1,7.79-7.78A7.78,7.78,0,0,1,39.31,44.27Zm50.6,41.52a2.61,2.61,0,0,1-2.6,2.59H79.53a2.61,2.61,0,0,1-2.6-2.59V67.63a6.49,6.49,0,1,0-13,0V85.79a2.6,2.6,0,0,1-2.59,2.59H53.58A2.6,2.6,0,0,1,51,85.79V52.06a2.61,2.61,0,0,1,2.59-2.6h7.79A2.61,2.61,0,0,1,64,52.06v1.66a14.76,14.76,0,0,1,11.68-5.55c7.16,0,14.27,5.19,14.27,15.56Z"/></svg>