<svg id="Capa_1" data-name="Capa 1" xmlns="http://www.w3.org/2000/svg" viewBox="0 0 41.6 41.6"><defs><style>.cls-1{fill:#fff;}</style></defs><path class="cls-1" d="M21.14,10.05a9.9,9.9,0,0,0-8.31,15.29l-1.07,4,4-1.06.4.25a9.91,9.91,0,1,0,5-18.47ZM27,24.32a5.28,5.28,0,0,1-.65.79A3,3,0,0,1,24,26a10.12,10.12,0,0,1-5.83-3,10.09,10.09,0,0,1-3-5.83A3,3,0,0,1,16,14.73a5.28,5.28,0,0,1,.79-.65.86.86,0,0,1,1.31.43l.66,2a1,1,0,0,1-.13,1.11l-.53.53a.77.77,0,0,0-.1,1,12.76,12.76,0,0,0,1.84,2.18A12.76,12.76,0,0,0,22,23.11a.78.78,0,0,0,1-.1l.53-.53a1,1,0,0,1,1.11-.13l2,.66A.86.86,0,0,1,27,24.32Z"/><path class="cls-1" d="M20.8,0h0A20.8,20.8,0,0,0,0,20.8H0A20.8,20.8,0,0,0,20.8,41.6h0A20.8,20.8,0,0,0,41.6,20.8h0A20.8,20.8,0,0,0,20.8,0ZM33.62,20.45a12.56,12.56,0,0,1-11.88,12A12.42,12.42,0,0,1,15.39,31h0l-6.25,1.4A.4.4,0,0,1,8.66,32l1.39-6.25a12.43,12.43,0,0,1-1.38-6.41,12.49,12.49,0,0,1,24.95,1.14Z"/></svg>