<svg id="Capa_1" data-name="Capa 1" xmlns="http://www.w3.org/2000/svg" viewBox="0 0 120.87 120.87"><defs><style>.cls-1{fill:#fff;}</style></defs><path class="cls-1" d="M60.62,0h0A60.44,60.44,0,0,0,.19,60.43h0a60.44,60.44,0,0,0,60.43,60.44h0a60.44,60.44,0,0,0,60.44-60.44h0A60.44,60.44,0,0,0,60.62,0Zm10,92.13L55,70.26,34.52,92.13H25.23L50.94,64.64,25.23,28.73H50.62l14.7,20.53L84.51,28.73h9.28L69.34,54.88,96,92.13Z"/><polygon class="cls-1" points="38.32 35.46 74.08 85.41 82.93 85.41 47.17 35.46 38.32 35.46"/></svg>